<?xml version="1.0" encoding="utf-8"?>
<!-- Generator: Adobe Illustrator 27.9.0, SVG Export Plug-In . SVG Version: 6.00 Build 0)  -->
<svg version="1.1" id="Layer_1" xmlns="http://www.w3.org/2000/svg" xmlns:xlink="http://www.w3.org/1999/xlink" x="0px" y="0px"
	 viewBox="0 0 1000 1000" style="enable-background:new 0 0 1000 1000;" xml:space="preserve">
<style type="text/css">
	.st0{fill:#490200;}
	.st1{fill:#FFFFFF;}
</style>
<g>
	<path d="M169.26,493.97l81.43,0.72h1.79l10.76-1.79c10.76-8.83,21.16-17.67,31.21-26.51c18.17-16,28.34-28.65,30.49-37.97
		c0.72-16.48,1.08-28.9,1.08-37.26c0-30.56-0.96-63.16-2.87-97.79c-27.98-21.25-57.04-37.49-87.17-48.72h-3.59
		c0.47-0.48,0.95-0.84,1.43-1.08h-59.91c7.89,3.59,12.31,9.56,13.27,17.91l1.79,211C188.99,482.75,182.41,489.91,169.26,493.97z
		 M229.2,283.4c0.73-8.13,1.82-14.11,3.28-17.94c12.12,5.98,21.2,10.4,27.26,13.27c10.91,5.98,17.57,13.04,20,21.16v148.16
		c-1.42,4.07-5.35,8.97-11.76,14.71c-5.46,4.79-10.56,8.49-15.32,11.12c-10.69-3.35-18.77-6.93-24.22-10.76
		c-0.23-0.95-0.48-1.79-0.71-2.51l-1.79-159.28C227.39,297.51,228.48,291.53,229.2,283.4z"/>
	<path d="M383.06,449.49c1.91-14.35,3.23-33.84,3.95-58.47c0.72-25.11,0.59-46.75-0.36-64.93h-32.29c1.67,23.2,2.51,44.36,2.51,63.5
		c0,25.35-1.32,46.52-3.95,63.49c-1.2,7.42-4.54,12.68-10.04,15.79h49.51C384.97,464.8,381.86,458.34,383.06,449.49z"/>
	<path d="M390.59,297.75c0-21.76-1.32-32.64-3.95-32.64c-0.96,0-2.51,0.24-4.66,0.72c-2.15,0.48-3.71,0.72-4.66,0.72
		c-4.3,0-8.02-1.08-11.12-3.23c-6.94,0.48-11.24,3.47-12.91,8.97c-0.24,3.59-0.6,7.3-1.08,11.12c3.59,11,8.25,19.61,13.99,25.83
		C375.53,308.27,383.65,304.44,390.59,297.75z"/>
	<path d="M452.65,346.89l-23.67,10.76c-10.76,4.79-18.18,11.24-22.24,19.37c8.96,43.53,18.63,64.34,29.01,62.42l22.65-14.35v12.92
		c-0.72,2.87,0.13,4.3,2.55,4.3c2.68,0,7.05-2.15,13.14-6.46l26.28-29.06l-13.27-0.72l1.43-81.79c1.19-6.22-4.55-14.35-17.22-24.39
		c-8.85-6.93-17.22-13.27-25.11-19.01c-21.05,12.44-32.77,20.21-35.16,23.32c-1.2,1.43-1.79,3.23-1.79,5.38
		c0,5.74,1.91,11.12,5.74,16.14l10.76,14.35l7.53-0.36l-3.23-11.84c0-4.3,4.42-9.2,13.27-14.71c5.26-3.35,8.49-5.38,9.68-6.1
		l5.38-2.87v105.11c-1.43,4.79-4.07,6.94-7.89,6.46c-6.94-9.33-10.4-22-10.4-38.02c0-3.35,0.23-6.69,0.72-10.05
		C440.57,362.68,444.52,355.74,452.65,346.89z"/>
	<path d="M549.79,439.8l26.99-32.64c0.47,47.12,0.71,70.31,0.71,69.59v10.4c-0.94,5.26-4.23,10.4-9.87,15.43
		c-12.45,11-19.5,16.62-21.14,16.86c-0.94,0.24-2-2.39-3.17-7.89c-2.59-11.24-4.58-19.85-5.99-25.83c0.72-4.06,3.59-8.48,8.61-13.27
		v-1.43l-33,19.37c-3.59,2.15-5.38,4.66-5.38,7.53c0,2.63,1.54,7.41,4.63,14.35l16.74,29.42c0.71,0.72,1.54,1.08,2.49,1.08
		c2.85,0,7.59-2.63,14.24-7.89c17.8-14.11,37.63-30.85,59.47-50.22l2.87-85.74v-94.35c0-1.91-4.14-4.78-12.43-8.61
		c-10.41-4.78-17.75-8.84-22.01-12.2c0.24,4.3,0.48,9.93,0.72,16.86l-30.49-16.86l-36.59,53.7l7.81,81.45L549.79,439.8z
		 M546.66,302.58l28.26,16.44c1.22,25.56,2.08,50.77,2.57,75.61l-24.39,22.93l-10.76-9.37L546.66,302.58z"/>
	<path d="M723.84,370.21c-0.96-16.5-4.07-27.26-9.33-32.29l-2.87-4.66l-25.47-17.58c-17.7,6.22-34.8,15.31-51.3,27.26
		c-2.63,44.25-3.71,71.99-3.23,83.23c1.43,5.26,14.22,17.22,38.38,35.87l6.46,1.08c7.65-0.95,17.45-4.54,29.42-10.76
		c14.35-7.41,20.92-14.11,19.73-20.09C724.92,399.27,724.32,378.58,723.84,370.21z M676.49,451.28c-4.79-2.15-8.02-5.62-9.69-10.4
		l-1.79-94.35c1.19-3.35,3.82-6.58,7.89-9.69l11.48-6.82c4.54,11.48,6.82,48.43,6.82,110.85
		C688.57,445.67,683.67,449.13,676.49,451.28z"/>
	<path d="M830.38,340.79l-20.45-29.42c-0.48-0.72-1.32-1.08-2.51-1.08c-1.92,0-7.89,3.83-17.93,11.48
		c-6.94,7.17-12.68,13.51-17.22,19.01v-32.29c-15.55,12.44-29.42,22.84-41.61,31.21l17.93-0.72v101.88c0,3.83-0.48,6.22-1.43,7.17
		c-1.2,1.67-4.9,3.83-11.12,6.46c2.15,0,5.44-0.12,9.87-0.36c4.42-0.24,7.71-0.36,9.86-0.36c3.35,0,8.43,0.12,15.25,0.36
		c6.82,0.24,11.89,0.36,15.25,0.36c-6.94-1.67-10.65-6.33-11.12-13.99c-1.92-31.09-2.51-60.27-1.79-87.53
		c7.65-10.04,11.84-15.18,12.55-15.42c6.69-1.91,11.24-0.48,13.63,4.3c1.91,43.53,2.99,85.38,3.23,125.56
		c-0.72,4.07-3.59,8.49-8.61,13.27v1.43l33-19.37c2.39-0.72,3.59-2.27,3.59-4.66C830.74,380.14,830.62,341.03,830.38,340.79z"/>
	<path d="M403.61,722.06c-0.25-0.23-1.61-4.05-4.08-11.43l-14.3-44.14c5.29-5.5,10.58-13.17,15.87-22.99
		c-9.02,5-15.54,8.45-19.58,10.36L341.9,531.57c-1.43-4.54-2.15-8.25-2.15-11.12c0-8.37,2.27-13.63,6.82-15.78h-53.45
		c4.06,2.15,6.1,7.77,6.1,16.86c0,3.11-0.96,7.66-2.87,13.63l-25.46,80c-14.83,2.15-27.75,10.76-38.75,25.83l16.14,17.58
		l-8.61-15.77c7.68-8.12,16.69-12.54,27.01-13.26l-33.83,105.08c-2.15,6.69-3.59,10.64-4.3,11.84c-1.43,2.39-5.02,4.54-10.76,6.46
		l17.93,0.72h23.68l14.71-0.72c-6.94-2.88-10.4-6.35-10.4-10.42c0-2.63,0.69-6.22,2.07-10.77l27.67-85.72l1.58-4.98
		c24.27,22.87,43.86,35.85,58.75,38.94l9.15,30.55c1.53,5.59,2.3,9.11,2.3,10.57c0,6.08-2.51,9.72-7.53,10.93l-8.97,6.19h72.1
		l-10.4-6.24C407.31,729.03,405.04,725.73,403.61,722.06z M299.26,627.72l18.99-64.4l24.89,82.64l3.92,12.09
		C334.5,655.43,318.57,645.32,299.26,627.72z"/>
	<path d="M451.67,711.29c0-0.95,0.23-1.91,0.72-2.87l1.43-185.82v-45.56l-11.93,16.5c-1.17,1.68-7.61,5.74-19.31,12.2l-1.4,200.53
		c0.72,5.98,6.82,11.12,18.3,15.43l29.42,10.76C457.41,722.66,451.67,715.6,451.67,711.29z"/>
	<path d="M528.08,698.02l21.88-31.21l-15.78-20.09c-0.96,11.24-1.56,17.34-1.79,18.3c-1.68,9.33-4.9,17.1-9.68,23.32
		c-6.22-3.35-10.29-7.05-12.2-11.12l-2.51-58.83c1.67-1.91,6.1-2.87,13.27-2.87c11.96,0,22.6,2.75,31.93,8.25l8.97-18.66
		l-10.04-34.44l-29.06-19.01c-1.92-1.19-4.3-1.31-7.17-0.36l-40.18,31.57c-3.35,18.42-5.02,36-5.02,52.73
		c0,11.72,0.95,22.12,2.87,31.21l36.23,31.57L528.08,698.02z M511.93,565.29c0.95-1.67,1.91-2.51,2.87-2.51
		c0.48,0,1.55,1.08,3.23,3.23l18.29,41.25c-5.74-1.43-15.31-1.79-28.7-1.08L511.93,565.29z"/>
	<path d="M649.54,604.3c0.95,0.48,1.55,2.02,1.79,4.64c-17.22,36.15-26.55,54.34-27.98,54.58c-2.15-0.23-4.19-5.97-6.1-17.22
		l-4.3-25.11c0.23-4.78,3.7-7.89,10.4-9.33h-52.73c4.3,2.15,7.41,4.29,9.33,6.44c13.87,36.72,20.81,60.81,20.81,72.25
		c0,4.53-0.84,8.95-2.51,13.23l-17.94,31.48c-34.67,0.24-56.2-1.76-64.57-6.01l6.46-8.13c12.2-2.83,19.73-4.95,22.6-6.36
		c1.43-0.47,2.28-1.53,2.51-3.19c-2.39-0.47-6.58-0.71-12.55-0.71c-6.22,0-14.35,0.24-24.39,0.72c-0.48,0.72-3.71,4.54-9.68,11.48
		c-2.87,3.35-4.3,5.86-4.3,7.53c0,1.43,1.2,2.87,3.59,4.3c14.59,8.37,27.26,13.27,38.02,14.71c4.31,1.68,21.41,3.83,51.3,6.46
		c0.23,0.24,0.48,0.36,0.72,0.36c4.54,0,20.57-24.7,48.07-74.09c17.93-32.21,32.88-59.41,44.84-81.6l-42.33-0.72L649.54,604.3z"/>
</g>
</svg>
