<?xml version="1.0" encoding="utf-8"?>
<!-- Generator: Adobe Illustrator 23.0.3, SVG Export Plug-In . SVG Version: 6.00 Build 0)  -->
<svg version="1.1" id="Capa_1" xmlns="http://www.w3.org/2000/svg" xmlns:xlink="http://www.w3.org/1999/xlink" x="0px" y="0px"
	 viewBox="0 0 1200 1200" enable-background="new 0 0 1200 1200" xml:space="preserve">
<path fill="#000000" d="M668.278,1079.421c-22.49,1.563-45.135,2.416-67.753,2.416c-0.175,0-0.35-0.002-0.524-0.004
	c-0.175,0.002-0.35,0.004-0.525,0.004c-22.792,0-45.612-0.863-68.273-2.449l68.661-476.512l12.991,91.907L668.278,1079.421z
	 M600,383.605c47.372,0,85.912-38.54,85.912-85.912c0-20.699-15.373-54.722-39.165-86.678
	c-20.742-27.865-39.038-43.029-47.346-48.258c-8.133,4.871-26.128,19.404-46.347,46.753c-23.67,32.017-38.966,66.63-38.966,88.183
	C514.089,345.065,552.629,383.605,600,383.605z M470.022,361.829c-17.761-25.572-28.2-56.612-28.2-90.106
	C441.822,184.365,551.743,50,600,50c43.718,0,158.178,134.365,158.178,221.724c0,33.483-10.432,64.515-28.183,90.083
	c-5.819,8.382-12.426,16.169-19.716,23.263c75.796,30.077,136.595,92.554,163.035,173.358l146.086,446.449
	c7.625,23.302-1.545,48.878-22.365,61.826c-63.167,39.284-152.26,68.104-249.397,82.847c-1.999,0.303-3.983,0.45-5.945,0.45
	c-19.125,0-35.888-13.994-38.7-33.504l-5.687-39.471c-0.04,0.004-0.082,0.006-0.122,0.01l-55.669-386.343l-27.181-192.285
	c-1.009-7.132-7.11-12.439-14.313-12.447c-0.007,0-0.014,0-0.02,0c-7.196,0-13.299,5.286-14.326,12.41l-83.374,578.617
	c-0.041-0.004-0.083-0.006-0.124-0.011l-5.683,39.443c-2.812,19.512-19.573,33.505-38.697,33.505c-1.967,0-3.961-0.148-5.966-0.454
	c-96.93-14.769-185.813-43.556-248.865-82.768c-20.819-12.948-29.989-38.524-22.365-61.826l146.078-446.426
	c26.429-80.771,87.21-143.309,163.032-173.391C482.431,377.974,475.834,370.198,470.022,361.829z M600,412.553
	c63.333,0,114.86-51.526,114.86-114.86c0-27.342-16.784-66.208-44.892-103.963c-26.232-35.24-53.305-57.263-66.496-60.805
	l-3.248-0.874l-3.3,0.65c-13.011,2.56-39.573,22.303-67.146,59.598c-27.95,37.807-44.637,77.205-44.637,105.394
	C485.141,361.027,536.666,412.553,600,412.553z"/>
</svg>
