<?xml version="1.0" encoding="utf-8"?>
<!-- Designed by Vexels.com - 2020 All Rights Reserved - https://vexels.com/terms-and-conditions/  -->
<svg version="1.1" id="Layer_1" xmlns="http://www.w3.org/2000/svg" xmlns:xlink="http://www.w3.org/1999/xlink" x="0px" y="0px"
	 viewBox="0 0 1200 1200" enable-background="new 0 0 1200 1200" xml:space="preserve">
<g>
	<path fill="#000000" d="M651.171,376.335c6.908-9.499,13.777-18.958,20.685-28.378c8.517-11.579,18.055-22.294,29.83-30.498
		c19.312-13.424,39.133-26.141,58.837-39.054c2.434-1.57,5.221-2.551,7.85-3.807c0.471,0.628,0.942,1.256,1.413,1.884
		c-4.279,4.043-8.282,8.4-12.874,12.05c-13.11,10.402-26.494,20.489-39.722,30.733c-13.776,10.676-26.65,22.294-36.895,36.503
		c-0.824,1.217-0.628,3.14-1.099,5.613c7.419-0.824,11.972-5.299,17.035-8.439c54.44-33.402,108.724-67.04,163.243-100.325
		c62.958-38.466,126.113-76.617,189.15-114.926c7.968-4.828,15.818-9.852,23.55-14.994c3.532-2.316,6.751-5.181,10.126-7.811
		c-0.745-9.616,0.236-18.801-2.276-27.161c-1.766-0.432-2.552-0.864-2.865-0.667c-3.022,2.119-6.163,4.082-8.792,6.555
		c-25.121,23.315-52.361,43.647-82.741,59.7c-32.342,17.153-65.196,33.167-99.422,46.159c-26.101,9.931-52.243,19.625-78.266,29.673
		c-24.925,9.616-49.103,20.607-70.415,37.21c-34.737,27.122-61.938,60.564-84.115,98.323c-0.941,1.609-1.884,3.258-2.512,4.985
		C650.111,371.703,647.913,373.823,651.171,376.335z"/>
	<path fill="#000000" d="M140.206,181.927c63.115,26.102,124.386,56.089,185.303,86.94c48.16,24.375,96.91,47.572,145.424,71.201
		c3.1,1.492,6.24,4.357,10.087,1.531c0.039-4.318-3.454-6.398-5.848-9.028c-20.371-22.294-44.628-39.172-71.554-52.674
		c-16.054-8.086-31.401-17.506-46.983-26.455c-2.472-1.413-5.573-2.865-4.592-7.615c5.73-1.256,10.637,1.923,15.386,4.317
		c19.978,9.97,39.8,20.253,59.622,30.498c12.207,6.28,23.393,14.012,33.795,23.001c16.564,14.327,30.968,30.341,40.153,49.299
		c5.103,3.297,9.302,5.574,14.876,4.121c-0.157-2.237,0.196-4.2-0.471-5.691c-15.7-34.462-36.974-65.038-68.256-86.783
		c-44.668-31.047-93.025-54.676-146.719-66.059c-12.756-2.669-25.513-5.181-38.191-8.164c-31.401-7.379-62.683-15.19-94.084-22.451
		c-15.307-3.533-29.674-8.91-42.822-17.506c-2.395-1.609-4.867-4.121-8.949-0.667c0.274,6.045,0.549,12.717,0.903,19.978
		C125.134,176.235,132.827,178.865,140.206,181.927z"/>
	<path fill="#000000" d="M1149.89,119.714c-0.118-2.905,0.392-6.28-4.318-8.557c-9.185,3.297-17.427,9.891-26.259,15.386
		c-57.503,35.6-114.298,72.417-172.546,106.762c-83.918,49.495-168.818,97.302-253.442,145.659
		c-9.656,5.495-19.979,9.931-30.027,14.758c-6.79,3.258-13.855,5.181-21.588,4.239c-3.65-0.432-7.418,0-11.147,0.157
		c-36.974,1.256-72.81-4.2-107.272-17.938c-4.004-1.57-8.322-2.59-12.599-3.179c-17.977-2.512-35.051-8.203-51.458-15.661
		c-42.94-19.468-85.959-38.78-128.585-58.954c-49.337-23.315-97.38-49.377-147.621-70.926
		c-39.918-17.113-79.483-35.012-119.244-52.517c-3.846-1.688-7.968-2.787-12.953-4.514c-0.313,4.161-1.02,7.144-0.785,10.048
		c3.651,45.178,7.301,90.316,11.187,135.454c3.964,45.766,5.417,91.65,6.83,137.573c1.884,62.644,4.435,125.327,8.164,187.893
		c2.865,47.69,6.319,95.379,7.575,143.147c0.354,14.287,1.217,28.535,2.041,42.783c0.275,4.906,1.099,9.774,1.805,15.465
		c5.339,3.062,10.519,6.32,15.975,9.106c29.83,15.229,59.739,30.38,89.61,45.531c27.671,14.052,55.892,27.122,82.897,42.312
		c48.2,26.965,95.968,54.715,143.343,83.094c40.507,24.257,81.758,46.905,124.857,66.255c8.949,4.004,17.27,9.381,26.416,14.405
		c34.187-5.731,68.453,1.491,102.954,5.495c42.077-28.103,84.35-55.304,125.563-84.036c49.966-34.815,101.62-66.805,154.411-97.067
		c48.475-27.75,97.067-55.304,145.503-83.094c5.848-3.336,12.325-5.966,17.663-12.756c0.668-4.828,1.884-10.912,2.355-17.035
		c1.923-25.356,3.846-50.751,5.338-76.146c3.14-52.046,6.398-104.093,8.91-156.139c1.923-40.31,2.513-80.66,4.279-120.97
		c1.256-28.535,3.532-56.992,5.259-85.488c1.767-28.496,4.357-56.992,5.025-85.488c1.216-53.381,1.334-106.762,1.922-160.143
		C1149.969,129.645,1150.086,124.66,1149.89,119.714z M121.929,257.5c34.435,13.957,68.774,28.152,103.128,42.31
		c13.168,5.427,26.229,11.12,39.486,16.317c46.726,18.314,93.075,37.514,138.466,58.95c8.385,3.96,16.541,8.458,24.533,13.165
		c2.313,1.362,3.69,4.314,5.462,6.495c-4.857,4.56-9.104,2.655-12.971,1.155c-9.815-3.809-19.464-8.041-29.204-12.044
		c-46.97-19.308-93.961-38.568-140.915-57.917c-9.732-4.011-19.362-8.275-28.998-12.515c-21.542-9.478-43.143-18.83-64.554-28.601
		c-12.382-5.65-24.471-11.95-36.62-18.1c-3.301-1.671-6.247-3.928-6.652-9.343C116.366,257.372,119.518,256.522,121.929,257.5z
		 M203.954,631.307c-1.903-1.186-3.093-3.565-4.48-5.485c-0.264-0.364,0.113-1.191,0.253-2.249c1.526-0.38,3.406-1.49,4.856-1.081
		c3.542,0.999,6.903,2.661,10.307,4.127c27.245,11.742,54.463,23.546,81.734,35.226c8.505,3.643,17.341,6.623,24.183,13.65
		c-0.159,1.768-0.317,3.514-0.459,5.089c-1.393,0.659-2.446,1.251-3.568,1.648c-0.538,0.189-1.256,0.161-1.806-0.025
		C276.187,669.127,238.782,653.007,203.954,631.307z M290.24,723.104c-5.615,4.037-11.185,2.595-16.142,0.395
		c-15.439-6.851-32.141-11.567-46.586-25.518c4.374-0.752,6.742-1.947,8.466-1.333c15.648,5.577,31.214,11.391,46.732,17.323
		C286.819,715.541,290.159,718.147,290.24,723.104z M220.458,592.168c-13.224-5.171-26.206-10.997-39.113-16.927
		c-3.721-1.71-6.798-4.82-10.427-7.476c1.584-2.194,2.586-3.582,3.402-4.712c1.104-0.092,1.798-0.357,2.321-0.163
		c59.663,22.122,120.521,41.025,178.953,66.461c3.396,1.478,6.918,2.827,9.994,4.831c2.459,1.602,4.328,4.109,6.573,6.327
		c-1.535,2.047-2.59,3.454-4.032,5.377c-2.904-0.507-5.997-0.675-8.837-1.608c-10.563-3.47-21.147-6.92-31.537-10.868
		C291.937,619.8,256.143,606.123,220.458,592.168z M303.355,473.857c6.224,2.628,12.022,6.413,17.669,10.186
		c2.326,1.554,3.732,4.486,6.74,8.289c-4.065,0.567-6.321,1.41-8.366,1.05c-3.628-0.638-7.258-1.693-10.658-3.118
		c-32.579-13.651-65.201-27.208-97.602-41.269c-10.701-4.644-21.208-10.037-31.158-18.981c2.706-2.204,3.659-3.608,4.473-3.532
		c3.043,0.284,6.243,0.565,9.029,1.711C230.157,443.293,266.819,458.429,303.355,473.857z M212.064,401.086
		c-0.197-3.096,1.722-4.966,4.328-4.237c24.298,6.795,48.694,13.384,71.042,25.592c1.024,0.56,1.696,1.768,3.265,3.469
		c-0.419,2.104-0.654,3.28-1.112,5.581c-4.004-0.389-8.293-0.177-12.206-1.288C251.779,422.931,224.329,410.543,212.064,401.086z
		 M447.476,993.051c-5.24-1.713-10.322-4.325-14.982-7.319c-27.724-17.814-57.23-32.392-86.138-48.073
		c-57.818-31.362-115.442-63.083-173.16-94.63c-10.89-5.953-21.927-11.641-32.743-17.726c-6.45-3.629-12.602-7.789-19.495-12.09
		c-3.212-39.071-6.297-76.16-9.285-113.256c-0.699-8.659-1.45-17.341-1.533-26.018c-0.454-47.828-4.141-95.491-6.952-143.2
		c-0.438-7.436-0.874-14.881-0.982-22.326c-0.733-50.29-3.643-100.478-6.555-150.675c-1.005-17.337-0.839-34.749-0.962-52.128
		c-0.038-5.499-0.445-11.424,5.562-15.006c3.579-0.474,5.825,1.903,6.411,4.983c0.917,4.835,1.115,9.833,1.306,14.773
		c3.085,80.015,6.116,160.032,9.171,240.048c2.107,55.205,4.123,110.412,6.397,165.61c1.225,29.721,2.907,59.422,4.45,90.466
		c5.423,2.765,11.305,6.044,17.413,8.831c31.649,14.442,62.072,31.197,92.527,47.967c48.38,26.638,97.314,52.268,145.794,78.727
		c20.689,11.291,40.853,23.547,61.183,35.488c3.726,2.188,7.345,4.701,10.54,7.588c1.594,1.441,2.119,4.065,3.835,7.62
		C454.318,992.94,450.55,994.057,447.476,993.051z M468.882,944.783c-0.257,2.138-2.04,4.093-3.848,7.451
		c-2.227-2.932-4.485-4.568-4.782-6.504c-2.628-17.139-5.519-34.273-7.186-51.519c-7.401-76.582-10.758-153.404-12.936-230.286
		c-0.105-3.72-0.27-7.442-0.25-11.162c0.325-62.02,0.657-124.038,1.052-186.058c0.032-4.931,0.532-9.86,0.819-14.884
		c2.005-1.679,3.779-3.165,5.144-4.308c5.083,1.389,6.921,4.68,7.319,8.416c0.655,6.151,0.894,12.371,0.885,18.562
		c-0.074,54.579-0.55,109.159-0.257,163.735c0.156,29.135,1.41,58.271,2.495,87.394c1.272,34.087,2.587,68.176,4.457,102.233
		c1.937,35.289,4.572,70.54,6.868,105.81C468.905,937.369,469.32,941.136,468.882,944.783z M551.354,1073.07
		c-4.684,1.124-5.799-1.554-6.262-3.735c-2.439-11.499-4.777-23.029-6.72-34.621c-1.332-7.941-2.275-15.977-2.849-24.008
		c-1.856-25.97-3.527-51.952-5.149-77.938c-3.824-61.311-3.296-122.734-4.736-184.107c-1.177-50.215-3.349-100.406-4.719-150.617
		c-0.778-28.514-0.856-57.047-1.198-85.572c-0.334-27.904-0.629-55.809-0.881-83.714c-0.044-4.95-0.302-9.991,0.531-14.818
		c0.444-2.575,3.008-4.785,4.873-7.541c6.912,3.32,8.309,7.361,8.591,11.827c0.469,7.425,0.821,14.864,0.944,22.302
		c1.15,69.447,2.068,138.899,3.409,208.342c0.874,45.255,2.349,90.499,3.533,135.748c1.396,53.309,2.234,106.64,4.348,159.921
		c1.326,33.428,4.469,66.787,6.985,100.163C552.783,1054.383,553.842,1063.996,551.354,1073.07z M678.288,1082.656
		c-3.512-4.11-5.238-5.229-5.555-6.661c-1.206-5.438-2.329-10.944-2.814-16.483c-1.789-20.383-3.764-40.766-4.829-61.193
		c-1.614-30.966-2.298-61.979-3.79-92.952c-1.999-41.496-4.696-82.96-6.528-124.462c-1.668-37.794-3.329-75.614-3.663-113.435
		c-0.57-64.494-0.085-128.998-0.08-193.498c0.001-9.301-0.229-18.603-0.308-27.905c-0.038-4.401,0.127-8.765,4.841-11.694
		c1.44,0.208,3.191,0.462,5.34,0.773c5.103,7.538,5.765,16.16,5.733,24.806c-0.046,13.022-0.642,26.041-0.759,39.064
		c-0.238,26.661-0.565,53.325-0.386,79.984c0.184,27.288,1.381,54.571,1.342,81.856c-0.092,63.921,4.072,127.67,6.774,191.485
		c2.283,53.908,3.503,107.861,5.054,161.798c0.499,17.355,0.628,34.721,0.763,52.084
		C679.457,1070.503,678.856,1074.786,678.288,1082.656z M724.987,403.546c1.816-1.618,4.102-2.736,6.261-3.938
		c61.215-34.068,122.557-67.91,183.622-102.242c44.861-25.222,89.427-50.974,133.975-76.747
		c9.641-5.578,18.605-12.317,27.961-18.398c3.56-2.313,7.347-4.277,13.786-7.987c2.603,2.565,4.255,4.192,4.684,4.615
		c-0.849,9.154-5.838,12.215-10.418,15.194c-13.512,8.787-27.221,17.272-40.901,25.797c-5.712,3.56-11.547,6.924-17.977,10.766
		c2.944,7.418,10.158,8.254,14.059,12.634c3.705,4.158,7.904,7.93,11.21,12.373c3.685,4.952,6.901,10.316,9.779,15.785
		c2.879,5.472,5.428,11.176,7.496,17c2.066,5.823,3.561,11.875,4.926,17.913c1.229,5.435,2.429,10.958,2.754,16.495
		c0.342,5.821,1.963,12.256-4.546,18.32c-2.975-9.365-5.762-17.509-8.146-25.77c-4.659-16.142-10.578-31.733-18.904-46.381
		c-7.559-13.3-17.714-23.712-32.283-30.228c-77.705,42.624-155.4,85.243-231.337,126.899c-2.404,2.274-3.294,3.13-4.2,3.969
		c-16.702,15.482-24.573,35.178-28.092,57.24c-3.118,19.552-7.738,38.88-7.05,59.305c-5.795-2.515-5.686-7.113-6.006-11.216
		c-1.989-25.537-0.494-50.803,6.381-75.602c1.12-4.038,2.254-8.072,3.843-13.76c-8.603,1.485-15.424,2.662-23.876,4.122
		C723.522,406.419,723.864,404.545,724.987,403.546z M949.867,586.269c8.329-3.954,16.704-7.542,25.176-10.168l0.097-0.03
		c1.383-0.429,2.318,0.583,2.089,2.256c-0.165,1.208-0.895,2.432-1.806,3.176c-8.146,6.641-16.338,12.297-24.525,17.565
		c-4.754,3.049-9.51,5.955-14.264,8.764c2.722,2.35,5.37,4.781,7.961,7.263c5.2,5.088,10.108,10.468,14.267,16.791
		c0.649,0.987,0.215,2.813-0.966,4.079c-0.859,0.919-1.878,1.29-2.62,1.049c-6.938-2.273-13.241-5.555-19.363-9.208
		c-0.799-0.489-1.568-1.028-2.364-1.528c0.411,6.838,0.768,13.629,1.013,20.408c0.556,14.487,0.782,28.819,0.181,43.269
		c-0.057,1.37-1.134,2.889-2.404,3.396c-1.066,0.426-1.933,0.003-2.154-0.951c-2.905-12.549-5.039-25.827-6.895-39.58
		c-1.013-7.369-1.91-14.896-2.74-22.558c-1.511,2.842-3.003,5.678-4.544,8.491c-4.81,8.86-9.637,17.605-14.93,26.234
		c-0.883,1.449-2.398,2.175-3.387,1.624c-0.727-0.407-0.964-1.407-0.689-2.479c2.446-9.387,5.853-18.791,9.673-28.21
		c2.05-5.105,4.286-10.196,6.631-15.294c-3.773,1.936-7.545,3.818-11.327,5.572c-8.139,3.822-16.288,7.356-24.508,10.016
		c-1.351,0.437-2.375-0.474-2.286-2.039c0.066-1.162,0.725-2.357,1.615-3.078l0.093-0.074c7.85-6.346,15.819-11.839,23.847-17.07
		c2.943-1.935,5.902-3.745,8.862-5.566c-0.04-0.037-0.084-0.069-0.125-0.107l-2.986-2.665c-0.237,0.322-0.321,0.409-0.052-0.045
		l-1.194-1.067l-1.035-1.002l-0.399-0.387l-0.065-0.063l-0.064-0.062l-0.15-0.143c-0.044-0.072,0.105,0.156-0.594-0.586l-0.331-0.46
		c1.834-1.102-1.657,0.762-0.99-2.007l-2.104-1.978l-8.299-8.061l-0.048-0.047c-0.896-0.87-0.756-2.784,0.314-4.276
		c0.83-1.157,1.981-1.717,2.872-1.503c4.016,0.979,7.627,2.47,11.162,4.085c0.977,0.423,1.904,0.922,2.846,1.394
		c4.972-0.244,2.858,0.677,3.548,0.446l0.021,0.02l0.305,0.281l0.262,0.254c-0.266-0.29-0.382-0.406-0.416-0.437
		c0.002,0.001,0.007,0.007,0.007,0.004l0.128,0.076l0.593,0.36l1.208,0.733l1.544,1.024c0.281-0.383,0.388-0.496,0.068,0.046
		l1.585,1.053c-0.801-10.489-1.544-21.187-2.052-32.197c-0.829-16.983-1.399-34.556-1.112-53.081
		c0.028-1.803,1.241-3.771,2.707-4.39c1.248-0.527,2.273,0.093,2.533,1.398c3.288,16.512,5.642,33.106,7.668,49.45
		c1.393,11,2.501,21.965,3.517,32.791c1.665-2.903,3.301-5.834,5.043-8.722c5.809-9.609,12.096-19.12,19.24-28.11
		c1.198-1.507,2.815-1.909,3.613-0.898c0.571,0.725,0.556,1.995,0.063,3.199c-4.325,10.52-9.013,20.512-13.766,30.315
		c-1.257,2.585-2.531,5.147-3.79,7.708C943.869,589.22,946.863,587.701,949.867,586.269z M962.051,787.025
		c0.311,5.093-3.074,9.612-7.295,9.929c-3.944,0.296-7.022-3.249-7.103-7.786c-0.078-4.418,2.718-8.54,6.449-9.358
		C958.082,778.937,961.749,782.084,962.051,787.025z M936.887,721.979c-0.265,2.256-0.734,4.605-1.732,7.211
		c-0.394,1.032-1.393,1.841-2.233,1.809c-0.308-0.012-0.55-0.136-0.717-0.339c-1.225-1.497-1.92-3.264-2.415-5.138
		c-0.516-1.871-0.77-3.879-0.881-5.968c-0.133-4.243,0.101-8.701,1.868-13.96c0.353-1.05,1.333-1.909,2.189-1.917
		c0.363-0.004,0.648,0.148,0.823,0.405c2.244,3.249,2.951,7.241,3.284,11.389C937.197,717.555,937.174,719.705,936.887,721.979z
		 M888.582,397.542c-0.079-4.418,2.718-8.54,6.448-9.358c3.98-0.873,7.646,2.274,7.949,7.216c0.312,5.093-3.074,9.612-7.295,9.929
		C891.74,405.624,888.663,402.079,888.582,397.542z M911.441,459.812c0.425-1.502,1.612-2.661,2.65-2.586
		c0.423,0.03,0.754,0.261,0.97,0.625c2.764,4.644,3.676,10.242,4.141,16.033c0.178,2.906,0.182,5.895-0.128,9.039
		c-0.286,3.119-0.817,6.357-1.98,9.921c-0.477,1.465-1.688,2.543-2.7,2.41c-0.349-0.046-0.634-0.236-0.834-0.516
		c-1.5-2.135-2.367-4.619-2.993-7.244c-0.653-2.623-0.994-5.425-1.16-8.333C909.176,473.254,909.387,467.057,911.441,459.812z
		 M851.078,797.7c3.8,4.532,7.475,9.394,10.704,15.151c0.511,0.911,0.243,2.504-0.599,3.558c-0.611,0.767-1.36,1.034-1.917,0.772
		c-5.172-2.444-9.816-5.693-14.248-9.193c-0.558-0.45-1.091-0.937-1.643-1.393c0.019,0.929,0.072,1.839,0.081,2.775
		c0.11,7.721,0.034,15.636-0.622,23.953c-0.109,1.376-0.987,2.734-1.961,3.03c-0.721,0.219-1.29-0.206-1.491-1l-0.021-0.082
		c-1.749-6.948-2.906-14.121-3.866-21.313c-0.279-2.027-0.483-4.09-0.713-6.13c-1.308,2.819-2.617,5.645-3.971,8.467
		c-3.565,7.496-7.209,15.029-11.252,22.563c-0.682,1.279-1.798,1.836-2.49,1.245c-0.508-0.434-0.642-1.38-0.406-2.35
		c2.057-8.379,4.741-16.514,7.653-24.46c1.538-4.237,3.188-8.405,4.893-12.525c-2.627,1.414-5.253,2.785-7.883,4.049
		c-5.664,2.76-11.327,5.279-16.988,7.057c-0.929,0.292-1.567-0.531-1.425-1.836c0.104-0.964,0.605-1.922,1.235-2.473l0.064-0.056
		c5.529-4.824,11.066-8.916,16.61-12.774c2.026-1.423,4.055-2.745,6.087-4.074c-0.028-0.031-0.056-0.059-0.082-0.09l-1.949-2.238
		c-0.164,0.245-0.222,0.31-0.033-0.037l-0.774-0.889l-0.664-0.828l-0.257-0.32l-0.039-0.05l-0.042-0.052l-0.096-0.119
		c-0.028-0.058,0.065,0.126-0.38-0.481l-0.208-0.371c1.241-0.789-1.115,0.531-0.603-1.599l-1.331-1.606l-5.142-6.407l-0.03-0.036
		c-0.545-0.68-0.391-2.103,0.344-3.179c0.569-0.833,1.322-1.214,1.886-1.029c2.551,0.845,4.846,2.067,7.108,3.388
		c0.628,0.35,1.225,0.756,1.832,1.144c3.275-0.025,1.866,0.607,2.325,0.454l0.014,0.016l0.195,0.225l0.171,0.204
		c-0.174-0.233-0.248-0.326-0.27-0.35c0.003,0.001,0.006,0.007,0.007,0.004l0.083,0.062l0.385,0.294l0.788,0.6l1.008,0.836
		c0.193-0.285,0.265-0.367,0.045,0.037l1.455,1.205c-0.087-2.797-0.168-5.585-0.195-8.395c-0.058-7.133,0.107-14.328,0.853-21.817
		l0.008-0.085c0.121-1.215,0.953-2.429,1.859-2.713c0.655-0.206,1.173,0.134,1.363,0.796c1.711,5.984,2.856,12.412,3.785,19.053
		c0.376,2.716,0.701,5.477,1.015,8.258c1.051-2.032,2.076-4.076,3.162-6.074c3.803-6.975,7.855-13.744,12.412-20.019
		c0.757-1.042,1.814-1.301,2.363-0.578c0.395,0.52,0.414,1.42,0.116,2.266c-2.651,7.49-5.616,14.744-8.69,22.004
		c-0.823,1.939-1.663,3.87-2.495,5.811c2.029-1.072,4.058-2.148,6.096-3.157c5.649-2.783,11.339-5.284,17.139-7.051l0.066-0.02
		c0.949-0.289,1.647,0.511,1.558,1.79c-0.065,0.927-0.526,1.851-1.137,2.4c-5.479,4.918-11.061,9.092-16.676,12.977
		c-3.271,2.255-6.554,4.401-9.843,6.472C847.331,793.403,849.214,795.521,851.078,797.7z M802.896,544.015
		c-0.079-4.418,2.718-8.54,6.449-9.358c3.98-0.873,7.645,2.274,7.948,7.216c0.312,5.093-3.074,9.612-7.295,9.929
		C806.054,552.098,802.976,548.553,802.896,544.015z M840.734,651.159c0.099-0.282,0.239-0.554,0.4-0.793
		c1.544-2.285,3.241-3.919,4.958-5.285c1.719-1.392,3.483-2.452,5.264-3.319c1.786-0.819,3.586-1.523,5.41-1.862
		c1.82-0.366,3.666-0.523,5.5,0.01c0.895,0.26,1.187,1.457,0.653,2.673c-0.148,0.334-0.341,0.635-0.563,0.89l-0.037,0.041
		c-3.322,3.783-6.641,5.951-10.037,7.755c-1.697,0.855-3.406,1.56-5.148,1.991c-1.743,0.458-3.499,0.694-5.38,0.418l-0.066-0.009
		C840.726,653.529,840.298,652.406,840.734,651.159z M748.708,911.198c-4.424-6.729-7.797-13.829-10.367-21.332
		c0.596,8.761,1.188,17.522,1.758,26.284c0.241,3.705,0.656,7.473,0.219,11.12c-0.257,2.138-2.041,4.093-3.849,7.451
		c-2.227-2.932-4.485-4.568-4.781-6.504c-2.628-17.139-5.52-34.273-7.187-51.519c-7.402-76.582-10.758-153.404-12.936-230.286
		c-0.105-3.72-0.269-7.442-0.25-11.162c0.325-62.02,0.657-124.038,1.052-186.058c0.032-4.931,0.531-9.86,0.819-14.884
		c2.004-1.679,3.778-3.164,5.145-4.308c5.082,1.389,6.92,4.68,7.317,8.416c0.655,6.151,0.895,12.371,0.886,18.562
		c-0.074,54.579-0.55,109.159-0.257,163.735c0.157,29.419,1.406,58.153,2.495,87.394c1.272,34.087,2.587,68.176,4.457,102.233
		c0.895,16.293,1.944,32.577,3.034,48.859c0.119-0.136,0.213-0.243,0.337-0.387c2.814,4.676,4.983,7.554,6.389,10.764
		c3.206,7.32,5.901,14.863,9.05,22.209c7.106,16.577,18.291,29.036,35.827,35.014c3.328,1.134,7.238,1.634,8.841,6.787
		c-2.236,0.558-4.406,1.65-6.514,1.54C772.353,934.197,758.494,926.083,748.708,911.198z M1022.998,826.956
		c-7.177,4.874-14.479,9.628-22.056,13.841c-30.914,17.186-61.94,34.167-92.949,51.179C876.42,909.3,845.54,927.732,815.51,947.66
		c-13.907,9.229-28.955,16.743-43.515,24.982c-3.321,1.88-6.824,2.34-12.166,0.884c2.419-3.381,3.593-6.322,5.761-7.862
		c51.583-36.659,103.312-72.966,160.118-101.558c32.113-16.164,62.87-35.023,94.247-52.654c2.111-1.187,4.294-2.246,8.337-4.352
		c1.587,1.559,3.247,3.189,3.458,3.398C1031.6,819.79,1027.657,823.791,1022.998,826.956z M1009.995,565.018
		c-4.72,2.595-9.42,4.743-14.274,5.477l-0.056,0.008c-0.963,0.146-1.492-0.744-1.182-1.989c0.133-0.531,0.398-1.042,0.731-1.464
		c2.295-2.898,4.697-5.086,7.101-7.047c2.409-1.993,4.845-3.598,7.289-5.078c2.447-1.427,4.907-2.646,7.376-3.491
		c2.463-0.863,4.952-1.453,7.388-1.187c0.896,0.099,1.2,1.223,0.679,2.509c-0.204,0.506-0.507,0.962-0.853,1.323l-0.054,0.056
		C1019.395,559.092,1014.722,562.327,1009.995,565.018z M1017.037,659.742c0.312,5.093-3.074,9.613-7.295,9.929
		c-3.943,0.296-7.022-3.248-7.102-7.786c-0.078-4.418,2.718-8.54,6.448-9.358C1013.069,651.654,1016.734,654.801,1017.037,659.742z
		 M1032.051,456.002c-0.612,0.767-1.36,1.035-1.917,0.772c-5.171-2.444-9.815-5.692-14.248-9.193
		c-0.558-0.449-1.091-0.937-1.643-1.393c0.019,0.929,0.072,1.839,0.081,2.775c0.109,7.721,0.034,15.636-0.623,23.953
		c-0.108,1.376-0.986,2.734-1.96,3.03c-0.721,0.219-1.291-0.206-1.492-1l-0.02-0.082c-1.749-6.948-2.906-14.121-3.866-21.313
		c-0.279-2.027-0.484-4.089-0.714-6.13c-1.307,2.819-2.616,5.645-3.97,8.467c-3.565,7.496-7.209,15.029-11.253,22.563
		c-0.682,1.279-1.797,1.836-2.489,1.245c-0.509-0.434-0.642-1.38-0.407-2.35c2.058-8.379,4.741-16.514,7.653-24.461
		c1.539-4.237,3.189-8.405,4.894-12.525c-2.627,1.414-5.254,2.785-7.884,4.048c-5.663,2.76-11.326,5.279-16.987,7.057
		c-0.929,0.292-1.567-0.531-1.425-1.836c0.104-0.965,0.605-1.923,1.234-2.473l0.065-0.056c5.529-4.824,11.066-8.916,16.61-12.774
		c2.025-1.423,4.055-2.745,6.086-4.074c-0.027-0.031-0.056-0.059-0.082-0.09l-1.948-2.238c-0.164,0.245-0.223,0.31-0.034-0.038
		l-0.773-0.889l-0.664-0.828l-0.258-0.32l-0.039-0.05l-0.042-0.052l-0.096-0.118c-0.027-0.058,0.066,0.126-0.379-0.481l-0.208-0.372
		c1.241-0.789-1.115,0.531-0.603-1.599l-1.331-1.606l-5.143-6.407l-0.03-0.036c-0.544-0.68-0.39-2.103,0.345-3.179
		c0.569-0.833,1.322-1.214,1.886-1.03c2.551,0.845,4.846,2.067,7.107,3.388c0.629,0.35,1.225,0.756,1.833,1.144
		c3.275-0.025,1.865,0.607,2.324,0.454l0.015,0.016l0.195,0.224l0.171,0.204c-0.174-0.233-0.248-0.326-0.271-0.349
		c0.004,0.001,0.007,0.007,0.008,0.004l0.083,0.062l0.384,0.294l0.788,0.6l1.009,0.836c0.192-0.285,0.265-0.368,0.045,0.037
		l1.454,1.205c-0.087-2.797-0.168-5.585-0.195-8.395c-0.057-7.134,0.108-14.328,0.853-21.817l0.009-0.085
		c0.121-1.215,0.953-2.429,1.859-2.713c0.655-0.206,1.172,0.134,1.363,0.796c1.711,5.984,2.855,12.412,3.784,19.053
		c0.377,2.715,0.701,5.477,1.016,8.258c1.051-2.032,2.076-4.076,3.162-6.074c3.803-6.975,7.854-13.744,12.412-20.019
		c0.756-1.042,1.814-1.301,2.363-0.578c0.395,0.521,0.414,1.42,0.116,2.266c-2.651,7.49-5.616,14.744-8.69,22.004
		c-0.823,1.939-1.663,3.87-2.496,5.811c2.03-1.072,4.059-2.148,6.097-3.157c5.649-2.783,11.338-5.285,17.139-7.051l0.066-0.02
		c0.949-0.289,1.646,0.511,1.558,1.79c-0.065,0.927-0.527,1.851-1.137,2.4c-5.478,4.918-11.06,9.092-16.676,12.977
		c-3.271,2.255-6.554,4.401-9.842,6.472c1.917,2.035,3.801,4.152,5.665,6.332c3.799,4.531,7.474,9.394,10.704,15.15
		C1033.16,453.354,1032.893,454.948,1032.051,456.002z M1098.838,475.148c-0.625,45.248-3.512,90.463-5.354,135.695
		c-0.354,8.674-0.563,17.355-0.875,26.032c-1.523,42.137-2.936,84.279-4.688,126.407c-0.36,8.641-1.713,17.28-3.229,25.81
		c-0.477,2.686-2.98,5.013-4.795,7.881c-2.874-1.116-5.034-1.953-7.672-2.978c-3.483-21.137,5.381-41.838,0.835-64.171
		c-6.251,4.583-7.475,10.939-10.627,15.862c-3.675,5.738-6.826,11.828-10.732,17.395c-3.496,4.983-6.938,10.346-13.448,12.129
		c-2.725-4.149,0.186-7.155,1.684-10.352c7.095-15.15,14.831-30.035,21.165-45.495c4.427-10.809,6.973-22.39,10.319-33.638
		c0.35-1.177,0.059-2.661,0.665-3.628c7.396-11.819,5.489-25.057,5.98-37.942c2.098-55.147,4.315-110.289,6.307-165.44
		c0.784-21.69,1.323-43.394,1.562-65.097c0.355-32.248-0.069-64.509,0.62-96.748c0.542-25.402,2.12-50.786,3.562-76.16
		c0.369-6.477-0.021-13.51,7.97-21.682c0.919,7.8,1.848,11.963,1.835,16.122C1099.7,315.149,1099.942,395.158,1098.838,475.148z"/>
</g>
</svg>
